<svg width="33" height="33" viewBox="0 0 33 33" fill="none" xmlns="http://www.w3.org/2000/svg">
  <!-- Placeholder Google "G" logo. Replace with the official multi-color asset. -->
  <circle cx="16.5" cy="16.5" r="16.5" fill="#F0F4F8" />
  <path
    d="M23.5 16.7c0-.6-.05-1.15-.14-1.7h-6.86v3.2h3.93a3.35 3.35 0 0 1-1.46 2.2v1.83h2.36c1.38-1.27 2.17-3.14 2.17-5.53Z"
    fill="#4285F4"
  />
  <path
    d="M16.5 24c1.97 0 3.62-.65 4.83-1.77l-2.36-1.83c-.66.44-1.5.7-2.47.7-1.9 0-3.51-1.28-4.08-3h-2.44v1.89A7.98 7.98 0 0 0 16.5 24Z"
    fill="#34A853"
  />
  <path
    d="M12.42 18.1a4.8 4.8 0 0 1 0-3.06v-1.89H9.98a8 8 0 0 0 0 6.84l2.44-1.89Z"
    fill="#FBBC05"
  />
  <path
    d="M16.5 11.04c1.07 0 2.03.37 2.79 1.09l2.09-2.08A7.63 7.63 0 0 0 16.5 8a7.98 7.98 0 0 0-7.02 4.15l2.44 1.89c.57-1.72 2.18-3 4.08-3Z"
    fill="#EA4335"
  />
</svg>
